# xmcd
#
# Track frame offsets: 
#        150
#        15245
#        29355
#        42607
#        62144
#        75769
#        90341
#        107885
#        127889
#        149733
#        166308
#        182004
#        198163
#        216229
#        232548
#        246065
#        265704
#        280913
#        294808
#        313873
#
# Disc length: 4393 seconds
#
# Revision: 0
# Processed by: cddbd v1.5.2PL0 Copyright (c) Steve Scherf et al.
# Submitted via: ExactAudioCopy v0.95b4
#
DISCID=08112714
DTITLE=Various Artist - Siempre Te Amare Vol.17
DYEAR=2000
DGENRE=Ballad
TTITLE0=Leo Dan - El amor estuvo aquí
TTITLE1=Lorenzo Santamaría - Por ese amor
TTITLE2=Julio Iglesias - El Amor
TTITLE3=Danny Daniel - Tu amor fue diferente
TTITLE4=Raphael - Hablemos de amor
TTITLE5=José Luis Perales - Por amor
TTITLE6=Nicola Di Bari - El amor te hace linda
TTITLE7=José José - El amor acaba
TTITLE8=José Luis Rodriguez - Este amor es un sueño de locos
TTITLE9=Basilio - Demasiado amor
TTITLE10=Camilo Sesto - Amor no me ignores
TTITLE11=Yaco Monti - Yo te amo, tu me amas, nos amamos
TTITLE12=Miguel Bosé - Morir de amor
TTITLE13=Sandro - Porque yo te amo
TTITLE14=Los Iracundos - Tu me diste amor, tu me diste fe
TTITLE15=Adamo - Es mi vida
TTITLE16=Piero - No te vayas por favor
TTITLE17=Los Belkins - Amor imposible
TTITLE18=Manolo Galván - Tanto amor
TTITLE19=Los Pasteles Verdes - Mi amor imposible
EXTD=
EXTT0=
EXTT1=
EXTT2=
EXTT3=
EXTT4=
EXTT5=
EXTT6=
EXTT7=
EXTT8=
EXTT9=
EXTT10=
EXTT11=
EXTT12=
EXTT13=
EXTT14=
EXTT15=
EXTT16=
EXTT17=
EXTT18=
EXTT19=
PLAYORDER=
